<?xml version="1.0" encoding="utf-8"?>
<!-- Generator: Adobe Illustrator 15.0.0, SVG Export Plug-In . SVG Version: 6.00 Build 0)  -->
<!DOCTYPE svg PUBLIC "-//W3C//DTD SVG 1.1//EN" "http://www.w3.org/Graphics/SVG/1.1/DTD/svg11.dtd">
<svg version="1.1" id="Layer_1" xmlns="http://www.w3.org/2000/svg" xmlns:xlink="http://www.w3.org/1999/xlink" x="0px" y="0px"
	 width="204.532px" height="265.764px" viewBox="0 0 204.532 265.764" enable-background="new 0 0 204.532 265.764"
	 xml:space="preserve">
<path fill="#FFFFFF" d="M283.911,297.64"/>
<path fill="#FFFFFF" stroke="#231F20" stroke-width="40" stroke-miterlimit="10" d="M402,370.141"/>
<g>
	<path fill="#E25F05" d="M91.148,1.747c77.879-17.858,66.854,107.658-4.59,84.941C51.632,75.584,46.433,12.001,91.148,1.747z"/>
	<path fill="#E25F05" d="M127.878,240.502c-9.727-13.873,1.287-23.517,9.188-32.142c-30.57,3.354-41.119-32.028-64.283-43.617
		c-17.639,5.396-2.482,24.949,0,36.73c-3.746,8.496-12.545,11.939-18.365,18.365c13.342,7.315,34.311,7.014,55.1,6.887
		c5.723,6.521,11.371,13.113,9.182,27.549C71.15,280.802,3.001,259.38-0.678,210.657c-3.334-44.102,33.748-71.473,48.209-105.604
		c32.225-1.813,75.328-13.278,105.604-4.591c21.049,6.039,61.205,75.526,50.508,105.604
		C195.101,230.073,160.933,250.86,127.878,240.502z M143.951,201.474c32.301-6.029,25.93-65.729-13.773-57.393
		C87.658,153.009,109.07,207.985,143.951,201.474z"/>
	<path fill="#FFFFFF" d="M436.975,286.77c39.703-8.337,46.074,51.361,13.773,57.394C415.87,350.673,394.458,295.696,436.975,286.77z
		"/>
</g>
</svg>
