<?xml version="1.0" encoding="utf-8"?>
<!-- Generator: Adobe Illustrator 15.0.0, SVG Export Plug-In . SVG Version: 6.00 Build 0)  -->
<!DOCTYPE svg PUBLIC "-//W3C//DTD SVG 1.1//EN" "http://www.w3.org/Graphics/SVG/1.1/DTD/svg11.dtd">
<svg version="1.1" id="Layer_1" xmlns="http://www.w3.org/2000/svg" xmlns:xlink="http://www.w3.org/1999/xlink" x="0px" y="0px"
	 width="841.89px" height="595.28px" viewBox="0 0 841.89 595.28" enable-background="new 0 0 841.89 595.28" xml:space="preserve">
<polygon fill="#69C17E" stroke="#69C17E" stroke-width="7" stroke-miterlimit="10" points="162.358,403.557 101.218,343.212 
	123.071,321.991 161.247,358.574 266.82,253.692 290.367,277.39 "/>
<path fill="#FFFFFF" stroke="#69C17E" stroke-width="7" stroke-miterlimit="10" d="M182.264,372.515
	c0,18.162,14.864,32.887,33.202,32.887c18.338,0,33.202-14.725,33.202-32.887v-0.794v-37.878v-55.273l-0.01-0.636
	c0-18.16-14.862-32.882-33.197-32.882c-18.334,0-33.197,14.722-33.197,32.882v0.636v54.875v38.276V372.515z"/>
<path fill="#69C17E" stroke="#69C17E" stroke-width="4" stroke-miterlimit="10" d="M183.521,324.174l-0.563,46.34v0.796
	c0,18.166,14.549,32.896,32.497,32.896c17.949,0,32.498-14.729,32.498-32.896l-0.002-0.796l0.564-46.458L183.521,324.174z"/>
<rect x="259.205" y="350.999" fill="none" width="580.685" height="151.946"/>
<text transform="matrix(1 0 0 1 259.2051 401.7734)" fill="#69C17E" font-family="'GillSans-Bold'" font-size="75" letter-spacing="-2">CheckMyMeds</text>
<path fill="none" stroke="#FFFFFF" stroke-width="5" stroke-miterlimit="10" d="M177.093,376.018
	c0,19.978,17.12,36.172,38.241,36.172c21.122,0,38.241-16.194,38.241-36.172v1.643v-41.661v-60.794l-0.011-0.699
	c0-19.974-17.118-36.167-38.235-36.167c-21.117,0-38.235,16.193-38.235,36.167v0.699v60.357v42.099V376.018z"/>
<rect x="190.237" y="330.952" fill="#FFFFFF" width="9.284" height="38.687"/>
</svg>
