<?xml version="1.0" encoding="utf-8"?>
<!-- Generator: Adobe Illustrator 15.0.0, SVG Export Plug-In . SVG Version: 6.00 Build 0)  -->
<!DOCTYPE svg PUBLIC "-//W3C//DTD SVG 1.1//EN" "http://www.w3.org/Graphics/SVG/1.1/DTD/svg11.dtd">
<svg version="1.1" id="Layer_1" xmlns="http://www.w3.org/2000/svg" xmlns:xlink="http://www.w3.org/1999/xlink" x="0px" y="0px"
	 width="150.301px" height="243.344px" viewBox="0 0 150.301 243.344" enable-background="new 0 0 150.301 243.344"
	 xml:space="preserve">
<path fill="#E25F05" d="M54.875,109.064c45.442-40.488,117.077,11.354,85.735,61.625c-17.989-3.439-6.033-36.836-16.073-48.229
	c-2.652,14.311,5.323,41.08,8.034,58.945c2.701,8.061-5.969,4.747-10.717,5.358c-2.895,18.539,7.156,50.024-8.037,56.266
	c-23.838,0.615-9.469-36.975-13.395-56.266c-14.838,7.489,3.881,48.535-10.717,56.266c-33.814,5.234-0.136-57.028-26.795-58.944
	c4.377-19.736,7-41.229,10.719-61.625c-8.451-4.771-18.017,12.271-29.478,13.396l-17.264-21.672V85.52l-1.92-8.078l-1.078-9.59
	l3-5.197l0,0l2.665-1.469l-2.668,10l5.334,41.334l5.668-0.334l8,7.334"/>
<circle fill="#E25F05" cx="96.51" cy="68.186" r="22.333"/>
<ellipse fill="#E25F05" cx="28.389" cy="30.853" rx="26.332" ry="30.853"/>
</svg>
