<?xml version="1.0" encoding="utf-8"?>
<!-- Generator: Adobe Illustrator 15.0.0, SVG Export Plug-In . SVG Version: 6.00 Build 0)  -->
<!DOCTYPE svg PUBLIC "-//W3C//DTD SVG 1.1//EN" "http://www.w3.org/Graphics/SVG/1.1/DTD/svg11.dtd">
<svg version="1.1" id="Layer_1" xmlns="http://www.w3.org/2000/svg" xmlns:xlink="http://www.w3.org/1999/xlink" x="0px" y="0px"
	 width="841.89px" height="595.28px" viewBox="0 0 841.89 595.28" enable-background="new 0 0 841.89 595.28" xml:space="preserve">
<path fill="#FFFFFF" stroke="#69C17E" stroke-width="7" stroke-miterlimit="10" d="M426.116,365.727
	c0,18.162,14.864,32.887,33.202,32.887s33.202-14.725,33.202-32.887v-0.794v-37.878v-55.273l-0.01-0.636
	c0-18.16-14.862-32.882-33.197-32.882s-33.197,14.722-33.197,32.882v0.636v54.875v38.276V365.727z"/>
<path fill="#69C17E" stroke="#69C17E" stroke-width="4" stroke-miterlimit="10" d="M427.373,317.386l-0.562,46.34v0.796
	c0,18.166,14.549,32.896,32.496,32.896c17.949,0,32.498-14.729,32.498-32.896l-0.002-0.796l0.564-46.458L427.373,317.386z"/>
<rect x="434.09" y="324.164" fill="#FFFFFF" width="9.283" height="38.687"/>
</svg>
