<?xml version="1.0" encoding="utf-8"?>
<!-- Generator: Adobe Illustrator 15.0.0, SVG Export Plug-In . SVG Version: 6.00 Build 0)  -->
<!DOCTYPE svg PUBLIC "-//W3C//DTD SVG 1.1//EN" "http://www.w3.org/Graphics/SVG/1.1/DTD/svg11.dtd">
<svg version="1.1" id="Layer_1" xmlns="http://www.w3.org/2000/svg" xmlns:xlink="http://www.w3.org/1999/xlink" x="0px" y="0px"
	 width="106.221px" height="215px" viewBox="0 0 106.221 215" enable-background="new 0 0 106.221 215" xml:space="preserve">
<g>
	<path fill="#FFFFFF" d="M177.001-17.419c0,85.334,0,170.666,0,256c-85.334,0-170.666,0-256,0c0-41.191,0-83.584,0-126
		c0-42.283-4.007-85.934,0-126c0.125-1.25-1.545-4.373,2-4C7.667-17.419,92.333-17.419,177.001-17.419z M53.001,36.581
		c23.379-0.928,22.982-42.592-5-37C24.602,4.256,30.452,37.476,53.001,36.581z M90.001,109.581c2.586,1.902,7.75,3.449,12,1
		c8.438-4.861,0.285-29.146-2-36c-3.672-11.014-8.569-25.061-16-30c-12.668-8.424-57.446-6.141-67,3
		c-12.658,12.111-19.399,43.064-17,62c24.959,10.918,13.609-29.879,28-36c4.478,6.969-3.811,12.959-6,20
		c-7.244,23.281-5.934,53.705-10,80c4.687,0.646,11.976-1.309,15,1c1.056,13.279-2.942,31.609,4,39c3.168,1.389,8.832,1.389,12,0
		c7.959-7.041,1.402-28.596,5-40c3,0,6,0,9,0c2.24,16.092-7.621,44.289,14,41c9.666-6,4.853-26.482,6-41c4.666,0,9.332,0,14,0
		c-2.731-29.354,0.006-62.883-10-84c-2.844-6-10.239-7.75-8-15C88.272,70.586,81.266,103.155,90.001,109.581z"/>
	<path fill="#E25F05" d="M48.001-0.419c27.982-5.592,28.379,36.072,5,37C30.452,37.476,24.602,4.256,48.001-0.419z"/>
	<path fill="#E25F05" d="M73.001,74.581c-2.239,7.25,5.156,9,8,15c10.006,21.117,7.269,54.646,10,84c-4.668,0-9.334,0-14,0
		c-1.147,14.518,3.666,35-6,41c-21.621,3.289-11.76-24.908-14-41c-3,0-6,0-9,0c-3.598,11.404,2.959,32.959-5,40
		c-3.168,1.389-8.832,1.389-12,0c-6.942-7.391-2.944-25.721-4-39c-3.024-2.309-10.313-0.354-15-1c4.066-26.295,2.756-56.719,10-80
		c2.189-7.041,10.478-13.031,6-20c-14.391,6.121-3.041,46.918-28,36c-2.399-18.936,4.342-49.889,17-62
		c9.554-9.141,54.332-11.424,67-3c7.431,4.939,12.328,18.986,16,30c2.285,6.854,10.438,31.139,2,36c-4.25,2.449-9.414,0.902-12-1
		C81.266,103.155,88.272,70.586,73.001,74.581z M25.001,108.581c4.17,31.457,54.41,28.604,54-5c-0.213-17.396-13.854-26.805-28-26
		C30.749,78.733,22.837,92.256,25.001,108.581z"/>
	<path fill="#FFFFFF" d="M51.001,77.581c14.146-0.805,27.787,8.604,28,26c0.41,33.604-49.83,36.457-54,5
		C22.837,92.256,30.749,78.733,51.001,77.581z M70.001,90.581c-0.897-5.707-5.209-7.141-10-6
		C37.337,89.979,73.708,114.101,70.001,90.581z M48.001,103.581c-0.901,3.314,5.558,4.338,3,6c-6.244-3.965-15.282,0.494-21,3
		c0,1.668,0,3.334,0,5c2.765,2.219,5.08,1.906,9,1c11.672,17.641,47.531-3.268,29-17c-4.317-0.65-5.604,1.729-8,3
		C56.653,101.127,50.098,95.135,48.001,103.581z"/>
	<path fill="#E25F05" d="M60.001,84.581c4.791-1.141,9.103,0.293,10,6C73.708,114.101,37.337,89.979,60.001,84.581z"/>
	<path fill="#E25F05" d="M60.001,104.581c2.396-1.271,3.683-3.65,8-3c18.531,13.732-17.328,34.641-29,17
		c-3.92,0.906-6.235,1.219-9-1c0-1.666,0-3.332,0-5c5.718-2.506,14.756-6.965,21-3c2.558-1.662-3.901-2.686-3-6
		C50.098,95.135,56.653,101.127,60.001,104.581z"/>
</g>
</svg>
